<?xml version="1.0" encoding="UTF-8"?>
<svg id="Layer_1" data-name="Layer 1" xmlns="http://www.w3.org/2000/svg" viewBox="0 0 244.48 283.784">
  <defs>
    <style>
      .cls-1 {
        fill: #fff;
      }

      .cls-2 {
        fill: #db7d59;
      }
    </style>
  </defs>
  <path class="cls-1" d="m158.416,91.421v-33.456h-72.45v102.987c7.634,0,37.123-2.694,37.123-42.362,24.25,4.116,35.327-9.505,35.327-27.169Z"/>
  <path class="cls-2" d="m145.319,145.758v-13.098h-2.096v13.098h-13.098v2.096h13.098v13.098h2.096v-13.098h13.098v-2.096h-13.098Z"/>
  <g>
    <path class="cls-1" d="m92.702,169.185h-6.736v16.017h2.545v-13.771h4.042c.973,0,3.293.225,3.293,2.62s-2.245,2.62-3.293,2.62h-2.171l-1.647,2.245h3.967c3.368,0,5.688-1.946,5.688-4.865s-2.245-4.865-5.688-4.865Z"/>
    <path class="cls-1" d="m108.644,185.202h2.545v-16.99l-2.545,1.946v15.044Z"/>
    <path class="cls-1" d="m133.718,171.43l1.422-2.245h-11.601v16.017h11.077v-2.245h-8.532v-4.715h6.811v-2.245h-6.811v-4.566h7.634Z"/>
    <path class="cls-1" d="m152.279,178.915c2.994-.299,4.94-2.171,4.94-4.865,0-2.919-2.32-4.865-5.688-4.865h-6.736v16.017h2.545v-13.771h4.042c.973,0,3.293.225,3.293,2.62s-2.32,2.62-3.293,2.62h-.973l-1.796,1.871,6.437,6.661h3.368l-6.137-6.287Z"/>
  </g>
  <g>
    <path class="cls-1" d="m21.565,228.817h-1.667v2.502h1.667c.81,0,1.322-.501,1.322-1.246s-.512-1.257-1.322-1.257m.091,4.106h-1.758v3.439h-1.783v-9.137h3.541c1.888,0,3.016,1.296,3.016,2.849s-1.128,2.849-3.016,2.849"/>
    <path class="cls-1" d="m30.57,236.44c-1.876,0-3.363-1.271-3.363-3.209v-6.007h1.783v5.942c0,1.055.616,1.681,1.58,1.681s1.591-.627,1.591-1.681v-5.942h1.771v6.007c0,1.938-1.487,3.209-3.361,3.209"/>
    <polyline class="cls-1" points="36.854 236.362 36.854 227.225 42.873 227.225 42.873 228.817 38.635 228.817 38.635 230.96 42.243 230.96 42.243 232.551 38.635 232.551 38.635 234.772 42.873 234.772 42.873 236.362 36.854 236.362"/>
    <polyline class="cls-1" points="49.504 232.615 49.504 236.362 47.731 236.362 47.731 232.615 44.986 227.225 46.925 227.225 48.632 230.909 50.313 227.225 52.251 227.225 49.504 232.615"/>
    <path class="cls-1" d="m61.625,236.44c-1.874,0-3.363-1.271-3.363-3.209v-6.007h1.783v5.942c0,1.055.617,1.681,1.58,1.681s1.592-.627,1.592-1.681v-5.942h1.771v6.007c0,1.938-1.489,3.209-3.363,3.209"/>
    <polyline class="cls-1" points="73.314 236.362 69.695 230.755 69.695 236.362 67.91 236.362 67.91 227.225 69.503 227.225 73.122 232.821 73.122 227.225 74.907 227.225 74.907 236.362 73.314 236.362"/>
    <path class="cls-1" d="m83.705,235.4c-.733.757-1.607,1.04-2.58,1.04-1.002,0-1.823-.36-2.464-1.002-.924-.923-.9-2.065-.9-3.644s-.024-2.72.9-3.644c.641-.643,1.436-1.001,2.464-1.001,2.117,0,3.196,1.386,3.438,2.925h-1.794c-.207-.859-.733-1.335-1.643-1.335-.488,0-.886.192-1.142.488-.347.383-.436.808-.436,2.566s.089,2.195.436,2.58c.256.296.654.474,1.142.474.538,0,.974-.192,1.271-.512.294-.334.41-.744.41-1.219v-.347h-1.681v-1.489h3.452v1.333c0,1.324-.231,2.119-.872,2.785"/>
    <path class="cls-1" d="m90.873,228.817h-1.669v2.502h1.669c.81,0,1.322-.501,1.322-1.246s-.512-1.257-1.322-1.257m.089,4.106h-1.758v3.439h-1.782v-9.137h3.539c1.888,0,3.016,1.296,3.016,2.849s-1.128,2.849-3.016,2.849"/>
    <polyline class="cls-1" points="101.469 236.362 101.469 232.538 98.378 232.538 98.378 236.362 96.594 236.362 96.594 227.225 98.378 227.225 98.378 230.96 101.469 230.96 101.469 227.225 103.254 227.225 103.254 236.362 101.469 236.362"/>
    <path class="cls-1" d="m109.41,229.92l-1.155,3.325h2.27l-1.115-3.325m2.13,6.443l-.539-1.616h-3.247l-.554,1.616h-1.86l3.323-9.136h1.398l3.337,9.136h-1.86Z"/>
    <polyline class="cls-1" points="120.802 236.362 118.452 232.206 117.274 233.617 117.274 236.362 115.489 236.362 115.489 227.225 117.274 227.225 117.274 231.204 120.493 227.225 122.663 227.225 119.633 230.857 122.881 236.362 120.802 236.362"/>
    <path class="cls-1" d="m129.126,229.228c-.258-.296-.655-.488-1.144-.488s-.897.192-1.155.488c-.347.383-.436.808-.436,2.566s.089,2.183.436,2.567c.258.294.668.487,1.155.487s.886-.192,1.144-.487c.345-.385.447-.81.447-2.567s-.102-2.183-.447-2.566m1.319,6.21c-.639.643-1.422,1.002-2.463,1.002s-1.836-.36-2.477-1.002c-.924-.923-.899-2.065-.899-3.644s-.025-2.72.899-3.644c.641-.643,1.438-1.001,2.477-1.001s1.823.358,2.463,1.001c.924.924.915,2.068.915,3.644s.01,2.722-.915,3.644"/>
    <path class="cls-1" d="m137.68,228.817h-1.68v2.413h1.68c.783,0,1.298-.501,1.298-1.207s-.515-1.206-1.298-1.206m1.387,7.545l-1.783-3.644h-1.284v3.644h-1.783v-9.137h3.579c1.861,0,2.965,1.271,2.965,2.798,0,1.284-.783,2.078-1.67,2.4l2.043,3.939h-2.066Z"/>
    <polyline class="cls-1" points="148.946 236.362 145.327 230.755 145.327 236.362 143.542 236.362 143.542 227.225 145.133 227.225 148.753 232.821 148.753 227.225 150.537 227.225 150.537 236.362 148.946 236.362"/>
    <rect class="cls-1" x="157.358" y="227.225" width="1.782" height="9.138"/>
    <polyline class="cls-1" points="167.583 236.362 163.964 230.755 163.964 236.362 162.179 236.362 162.179 227.225 163.772 227.225 167.391 232.821 167.391 227.225 169.176 227.225 169.176 236.362 167.583 236.362"/>
    <path class="cls-1" d="m174.829,236.44c-1.386,0-2.439-.296-3.336-1.207l1.155-1.153c.577.576,1.362.768,2.206.768,1.053,0,1.618-.398,1.618-1.129,0-.32-.091-.59-.283-.77-.18-.165-.383-.258-.808-.32l-1.104-.154c-.783-.116-1.359-.36-1.771-.759-.436-.434-.655-1.024-.655-1.796,0-1.629,1.206-2.771,3.185-2.771,1.257,0,2.167.307,2.949,1.066l-1.129,1.115c-.576-.55-1.269-.628-1.872-.628-.95,0-1.413.527-1.413,1.155,0,.231.076.476.27.654.18.169.476.309.846.361l1.08.153c.834.115,1.359.347,1.743.708.488.46.708,1.128.708,1.936,0,1.771-1.478,2.773-3.39,2.773"/>
    <polyline class="cls-1" points="184.399 228.817 184.399 236.362 182.616 236.362 182.616 228.817 180.23 228.817 180.23 227.225 186.785 227.225 186.785 228.817 184.399 228.817"/>
    <rect class="cls-1" x="189.21" y="227.225" width="1.782" height="9.138"/>
    <polyline class="cls-1" points="197.587 228.817 197.587 236.362 195.802 236.362 195.802 228.817 193.416 228.817 193.416 227.225 199.973 227.225 199.973 228.817 197.587 228.817"/>
    <path class="cls-1" d="m205.642,236.44c-1.874,0-3.363-1.271-3.363-3.209v-6.007h1.783v5.942c0,1.055.616,1.681,1.58,1.681s1.589-.627,1.589-1.681v-5.942h1.772v6.007c0,1.938-1.487,3.209-3.361,3.209"/>
    <polyline class="cls-1" points="215.481 228.817 215.481 236.362 213.698 236.362 213.698 228.817 211.309 228.817 211.309 227.225 217.867 227.225 217.867 228.817 215.481 228.817"/>
    <polyline class="cls-1" points="220.25 236.362 220.25 227.225 226.268 227.225 226.268 228.817 222.034 228.817 222.034 230.96 225.642 230.96 225.642 232.551 222.034 232.551 222.034 234.772 226.268 234.772 226.268 236.362 220.25 236.362"/>
    <polyline class="cls-1" points="33.734 247.256 33.734 249.502 37.341 249.502 37.341 251.095 33.734 251.095 33.734 254.803 31.951 254.803 31.951 245.665 37.969 245.665 37.969 247.256 33.734 247.256"/>
    <path class="cls-1" d="m44.588,247.668c-.258-.294-.654-.488-1.144-.488-.485,0-.897.194-1.153.488-.347.385-.437.808-.437,2.566s.091,2.181.437,2.566c.256.296.668.488,1.153.488.49,0,.886-.192,1.144-.488.347-.385.447-.81.447-2.566s-.1-2.181-.447-2.566m1.32,6.21c-.641.641-1.424,1.001-2.464,1.001s-1.836-.36-2.477-1.001c-.924-.923-.897-2.065-.897-3.644s-.027-2.72.897-3.644c.641-.641,1.438-1.001,2.477-1.001s1.823.36,2.464,1.001c.924.924.913,2.066.913,3.644s.011,2.722-.913,3.644"/>
    <path class="cls-1" d="m53.143,247.256h-1.681v2.413h1.681c.783,0,1.295-.501,1.295-1.206s-.512-1.207-1.295-1.207m1.386,7.547l-1.783-3.644h-1.284v3.644h-1.785v-9.137h3.579c1.863,0,2.965,1.271,2.965,2.798,0,1.282-.781,2.079-1.667,2.4l2.041,3.939h-2.066Z"/>
    <polyline class="cls-1" points="62.788 254.803 62.788 245.665 68.808 245.665 68.808 247.256 64.57 247.256 64.57 249.4 68.178 249.4 68.178 250.993 64.57 250.993 64.57 253.212 68.808 253.212 68.808 254.803 62.788 254.803"/>
    <path class="cls-1" d="m74.525,254.879c-1.002,0-1.825-.36-2.464-1.001-.924-.923-.899-2.065-.899-3.644s-.025-2.72.899-3.644c.639-.641,1.462-1.001,2.464-1.001,1.707,0,3.04.975,3.361,2.887h-1.81c-.178-.732-.641-1.296-1.54-1.296-.487,0-.884.178-1.142.474-.347.387-.447.822-.447,2.58s.1,2.194.447,2.579c.258.297.655.476,1.142.476.899,0,1.362-.565,1.54-1.296h1.81c-.321,1.912-1.669,2.887-3.361,2.887"/>
    <path class="cls-1" d="m84.825,247.668c-.256-.294-.652-.488-1.144-.488-.487,0-.897.194-1.152.488-.348.385-.437.808-.437,2.566s.089,2.181.437,2.566c.255.296.665.488,1.152.488.492,0,.888-.192,1.144-.488.347-.385.449-.81.449-2.566s-.102-2.181-.449-2.566m1.32,6.21c-.639.641-1.424,1.001-2.464,1.001s-1.834-.36-2.474-1.001c-.926-.923-.9-2.065-.9-3.644s-.025-2.72.9-3.644c.639-.641,1.436-1.001,2.474-1.001s1.825.36,2.464,1.001c.926.924.913,2.066.913,3.644s.013,2.722-.913,3.644"/>
    <polyline class="cls-1" points="95.319 254.803 91.7 249.195 91.7 254.803 89.915 254.803 89.915 245.665 91.506 245.665 95.128 251.26 95.128 245.665 96.91 245.665 96.91 254.803 95.319 254.803"/>
    <path class="cls-1" d="m104.286,247.668c-.258-.294-.655-.488-1.144-.488s-.897.194-1.155.488c-.347.385-.437.808-.437,2.566s.091,2.181.437,2.566c.258.296.668.488,1.155.488s.886-.192,1.144-.488c.344-.385.447-.81.447-2.566s-.103-2.181-.447-2.566m1.32,6.21c-.639.641-1.424,1.001-2.464,1.001s-1.836-.36-2.477-1.001c-.924-.923-.897-2.065-.897-3.644s-.027-2.72.897-3.644c.641-.641,1.438-1.001,2.477-1.001s1.825.36,2.464,1.001c.924.924.912,2.066.912,3.644s.013,2.722-.912,3.644"/>
    <polyline class="cls-1" points="115.87 254.803 115.87 249.478 114.124 252.941 112.918 252.941 111.159 249.478 111.159 254.803 109.375 254.803 109.375 245.665 111.135 245.665 113.523 250.606 115.896 245.665 117.654 245.665 117.654 254.803 115.87 254.803"/>
    <rect class="cls-1" x="120.691" y="245.665" width="1.783" height="9.137"/>
    <path class="cls-1" d="m128.733,254.879c-1.001,0-1.821-.36-2.464-1.001-.924-.923-.899-2.065-.899-3.644s-.025-2.72.899-3.644c.643-.641,1.464-1.001,2.464-1.001,1.707,0,3.042.975,3.363,2.887h-1.809c-.181-.732-.644-1.296-1.541-1.296-.487,0-.884.178-1.141.474-.348.387-.449.822-.449,2.58s.1,2.194.449,2.579c.256.297.654.476,1.141.476.897,0,1.36-.565,1.541-1.296h1.809c-.321,1.912-1.67,2.887-3.363,2.887"/>
    <path class="cls-1" d="m141.908,247.256h-1.681v2.413h1.681c.783,0,1.295-.501,1.295-1.206s-.512-1.207-1.295-1.207m1.386,7.547l-1.783-3.644h-1.284v3.644h-1.783v-9.137h3.579c1.863,0,2.965,1.271,2.965,2.798,0,1.282-.783,2.079-1.669,2.4l2.041,3.939h-2.066Z"/>
    <polyline class="cls-1" points="147.769 254.803 147.769 245.665 153.788 245.665 153.788 247.256 149.552 247.256 149.552 249.4 153.158 249.4 153.158 250.993 149.552 250.993 149.552 253.212 153.788 253.212 153.788 254.803 147.769 254.803"/>
    <path class="cls-1" d="m159.02,254.879c-1.387,0-2.44-.294-3.337-1.206l1.156-1.153c.576.576,1.36.768,2.206.768,1.051,0,1.616-.398,1.616-1.129,0-.321-.089-.59-.283-.77-.178-.167-.383-.256-.808-.32l-1.102-.154c-.783-.116-1.362-.36-1.772-.757-.436-.436-.654-1.028-.654-1.798,0-1.629,1.206-2.771,3.182-2.771,1.26,0,2.17.307,2.952,1.064l-1.129,1.117c-.577-.552-1.271-.628-1.874-.628-.95,0-1.411.527-1.411,1.155,0,.232.076.474.27.654.18.169.472.307.846.361l1.079.151c.834.118,1.36.348,1.745.708.487.461.705,1.128.705,1.938,0,1.771-1.476,2.771-3.387,2.771"/>
    <polyline class="cls-1" points="165.035 254.803 165.035 245.665 171.053 245.665 171.053 247.256 166.818 247.256 166.818 249.4 170.426 249.4 170.426 250.993 166.818 250.993 166.818 253.212 171.053 253.212 171.053 254.803 165.035 254.803"/>
    <path class="cls-1" d="m177.094,248.36l-1.155,3.325h2.27l-1.115-3.325m2.128,6.443l-.538-1.616h-3.247l-.554,1.616h-1.861l3.325-9.137h1.4l3.336,9.137h-1.861Z"/>
    <path class="cls-1" d="m186.637,247.256h-1.683v2.413h1.683c.783,0,1.296-.501,1.296-1.206s-.514-1.207-1.296-1.207m1.387,7.547l-1.785-3.644h-1.285v3.644h-1.783v-9.137h3.581c1.863,0,2.964,1.271,2.964,2.798,0,1.282-.781,2.079-1.667,2.4l2.041,3.939h-2.065Z"/>
    <path class="cls-1" d="m195.64,254.879c-1.001,0-1.821-.36-2.464-1.001-.923-.923-.897-2.065-.897-3.644s-.025-2.72.897-3.644c.643-.641,1.464-1.001,2.464-1.001,1.708,0,3.045.975,3.363,2.887h-1.809c-.18-.732-.643-1.296-1.541-1.296-.487,0-.884.178-1.141.474-.347.387-.449.822-.449,2.58s.102,2.194.449,2.579c.256.297.654.476,1.141.476.899,0,1.362-.565,1.541-1.296h1.809c-.318,1.912-1.669,2.887-3.363,2.887"/>
    <polyline class="cls-1" points="206.443 254.803 206.443 250.978 203.348 250.978 203.348 254.803 201.565 254.803 201.565 245.665 203.348 245.665 203.348 249.4 206.443 249.4 206.443 245.665 208.226 245.665 208.226 254.803 206.443 254.803"/>
  </g>
</svg>