<?xml version="1.0" encoding="UTF-8"?>
<svg id="Layer_1" data-name="Layer 1" xmlns="http://www.w3.org/2000/svg" viewBox="0 0 353.222 148.563">
  <defs>
    <style>
      .cls-1 {
        fill: #db7d59;
      }

      .cls-2 {
        fill: #477388;
      }

      .cls-3 {
        fill: #4d4d4d;
      }
    </style>
  </defs>
  <path class="cls-2" d="m87.178,50.086v-26.838H29.059v82.615c6.124,0,29.78-2.161,29.78-33.983,19.453,3.302,28.339-7.625,28.339-21.795Z"/>
  <path class="cls-1" d="m76.671,93.675v-10.507h-1.681v10.507h-10.507v1.681h10.507v10.507h1.681v-10.507h10.507v-1.681h-10.507Z"/>
  <g>
    <path class="cls-3" d="m34.463,112.467h-5.404v12.849h2.041v-11.047h3.242c.781,0,2.642.18,2.642,2.101s-1.801,2.101-2.642,2.101h-1.741l-1.321,1.801h3.182c2.702,0,4.563-1.561,4.563-3.903s-1.801-3.903-4.563-3.903Z"/>
    <path class="cls-3" d="m47.252,125.316h2.041v-13.629l-2.041,1.561v12.068Z"/>
    <path class="cls-3" d="m67.365,114.268l1.141-1.801h-9.306v12.849h8.886v-1.801h-6.845v-3.783h5.464v-1.801h-5.464v-3.662h6.124Z"/>
    <path class="cls-3" d="m82.255,120.272c2.402-.24,3.963-1.741,3.963-3.903,0-2.342-1.861-3.903-4.563-3.903h-5.404v12.849h2.041v-11.047h3.242c.781,0,2.642.18,2.642,2.101s-1.861,2.101-2.642,2.101h-.781l-1.441,1.501,5.163,5.344h2.702l-4.923-5.043Z"/>
  </g>
  <g>
    <path class="cls-3" d="m121.447,46.407h-2.586v5.059h-2.623v-13.432h5.209c2.772,0,4.434,1.902,4.434,4.187s-1.662,4.186-4.434,4.186Zm-.133-6.036h-2.453v3.682h2.453c1.188,0,1.944-.738,1.944-1.832s-.756-1.85-1.944-1.85Z"/>
    <path class="cls-3" d="m134.186,51.579c-2.756,0-4.945-1.868-4.945-4.716v-8.829h2.621v8.733c0,1.55.908,2.472,2.324,2.472s2.337-.922,2.337-2.472v-8.733h2.606v8.829c0,2.848-2.191,4.716-4.943,4.716Z"/>
    <path class="cls-3" d="m143.054,51.466v-13.432h8.849v2.337h-6.226v3.151h5.301v2.341h-5.301v3.264h6.226v2.338h-8.849Z"/>
    <path class="cls-3" d="m161.286,45.957v5.509h-2.608v-5.509l-4.037-7.923h2.85l2.512,5.413,2.471-5.413h2.85l-4.039,7.923Z"/>
    <path class="cls-3" d="m181.358,51.579c-2.756,0-4.945-1.868-4.945-4.716v-8.829h2.623v8.733c0,1.55.906,2.472,2.322,2.472s2.339-.922,2.339-2.472v-8.733h2.602v8.829c0,2.848-2.189,4.716-4.941,4.716Z"/>
    <path class="cls-3" d="m198.169,51.466l-5.315-8.245v8.245h-2.625v-13.432h2.339l5.325,8.223v-8.223h2.617v13.432h-2.341Z"/>
    <path class="cls-3" d="m213.081,50.05c-1.077,1.113-2.361,1.529-3.792,1.529-1.47,0-2.676-.529-3.624-1.47-1.359-1.359-1.319-3.04-1.319-5.359s-.039-3.999,1.319-5.358c.948-.946,2.114-1.473,3.624-1.473,3.113,0,4.698,2.036,5.055,4.302h-2.639c-.302-1.264-1.075-1.962-2.416-1.962-.718,0-1.302.283-1.68.715-.509.566-.64,1.188-.64,3.775s.131,3.225.64,3.791c.378.434.961.698,1.68.698.793,0,1.431-.282,1.87-.752.433-.493.601-1.095.601-1.794v-.509h-2.471v-2.19h5.076v1.963c0,1.943-.341,3.115-1.284,4.094Z"/>
    <path class="cls-3" d="m223.386,46.407h-2.588v5.059h-2.621v-13.432h5.209c2.774,0,4.434,1.902,4.434,4.187s-1.66,4.186-4.434,4.186Zm-.133-6.036h-2.455v3.682h2.455c1.188,0,1.944-.738,1.944-1.832s-.756-1.85-1.944-1.85Z"/>
    <path class="cls-3" d="m238.462,51.466v-5.622h-4.544v5.622h-2.625v-13.432h2.625v5.487h4.544v-5.487h2.627v13.432h-2.627Z"/>
    <path class="cls-3" d="m252.898,51.466l-.789-2.377h-4.777l-.808,2.377h-2.739l4.89-13.432h2.056l4.908,13.432h-2.741Zm-3.132-9.473l-1.695,4.889h3.342l-1.646-4.889Z"/>
    <path class="cls-3" d="m266.148,51.466l-3.449-6.112-1.736,2.075v4.037h-2.625v-13.432h2.625v5.845l4.736-5.845h3.189l-4.456,5.339,4.775,8.093h-3.058Z"/>
    <path class="cls-3" d="m279.962,50.109c-.946.942-2.093,1.47-3.622,1.47s-2.698-.529-3.641-1.47c-1.361-1.359-1.321-3.04-1.321-5.359s-.039-3.999,1.321-5.358c.944-.946,2.114-1.473,3.641-1.473s2.676.528,3.622,1.473c1.359,1.36,1.341,3.037,1.341,5.358s.018,4.001-1.341,5.359Zm-1.942-9.135c-.378-.433-.961-.715-1.68-.715s-1.319.283-1.697.715c-.509.566-.642,1.188-.642,3.775s.133,3.206.642,3.774c.378.434.981.715,1.697.715s1.302-.282,1.68-.715c.511-.568.662-1.189.662-3.774s-.151-3.21-.662-3.775Z"/>
    <path class="cls-3" d="m292.27,51.466l-2.625-5.358h-1.885v5.358h-2.623v-13.432h5.264c2.735,0,4.356,1.866,4.356,4.11,0,1.891-1.147,3.058-2.449,3.529l2.997,5.793h-3.034Zm-2.038-11.095h-2.473v3.546h2.473c1.149,0,1.903-.735,1.903-1.773s-.754-1.774-1.903-1.774Z"/>
    <path class="cls-3" d="m306.422,51.466l-5.321-8.245v8.245h-2.619v-13.432h2.336l5.325,8.223v-8.223h2.619v13.432h-2.339Z"/>
    <path class="cls-3" d="m116.296,82.534v-13.435h2.619v13.435h-2.619Z"/>
    <path class="cls-3" d="m130.956,82.534l-5.317-8.244v8.244h-2.623v-13.435h2.337l5.321,8.225v-8.225h2.623v13.435h-2.341Z"/>
    <path class="cls-3" d="m141.245,82.649c-2.042,0-3.588-.436-4.908-1.775l1.699-1.697c.85.849,1.999,1.13,3.248,1.13,1.543,0,2.375-.582,2.375-1.66,0-.471-.133-.865-.417-1.13-.264-.244-.566-.379-1.19-.473l-1.623-.226c-1.147-.169-1.999-.531-2.602-1.115-.642-.641-.961-1.508-.961-2.64,0-2.398,1.774-4.077,4.677-4.077,1.854,0,3.193.452,4.34,1.566l-1.656,1.643c-.852-.812-1.868-.923-2.756-.923-1.4,0-2.077.772-2.077,1.694,0,.341.112.701.399.965.26.244.695.452,1.243.526l1.584.229c1.227.171,2.001.508,2.566,1.038.718.677,1.038,1.66,1.038,2.848,0,2.604-2.169,4.077-4.978,4.077Z"/>
    <path class="cls-3" d="m154.943,71.44v11.094h-2.621v-11.094h-3.508v-2.34h9.64v2.34h-3.51Z"/>
    <path class="cls-3" d="m161.646,82.534v-13.435h2.619v13.435h-2.619Z"/>
    <path class="cls-3" d="m173.59,71.44v11.094h-2.625v-11.094h-3.506v-2.34h9.638v2.34h-3.506Z"/>
    <path class="cls-3" d="m185.062,82.649c-2.754,0-4.941-1.868-4.941-4.717v-8.832h2.621v8.738c0,1.544.906,2.469,2.32,2.469s2.341-.925,2.341-2.469v-8.738h2.602v8.832c0,2.849-2.187,4.717-4.943,4.717Z"/>
    <path class="cls-3" d="m199.162,71.44v11.094h-2.623v-11.094h-3.51v-2.34h9.64v2.34h-3.506Z"/>
    <path class="cls-3" d="m205.802,82.534v-13.435h8.851v2.34h-6.227v3.15h5.305v2.34h-5.305v3.264h6.227v2.339h-8.851Z"/>
    <path class="cls-3" d="m228.874,71.44v3.304h5.305v2.338h-5.305v5.452h-2.621v-13.435h8.851v2.34h-6.229Z"/>
    <path class="cls-3" d="m246.407,81.176c-.942.945-2.095,1.473-3.624,1.473s-2.696-.529-3.639-1.473c-1.361-1.361-1.321-3.036-1.321-5.36s-.039-4.001,1.321-5.359c.944-.942,2.112-1.47,3.639-1.47s2.682.529,3.624,1.47c1.359,1.359,1.339,3.039,1.339,5.359s.02,4-1.339,5.36Zm-1.942-9.132c-.378-.436-.965-.719-1.682-.719s-1.32.284-1.695.719c-.515.566-.642,1.189-.642,3.772s.127,3.21.642,3.775c.376.435.981.716,1.695.716s1.304-.281,1.682-.716c.505-.566.66-1.188.66-3.775s-.155-3.206-.66-3.772Z"/>
    <path class="cls-3" d="m258.711,82.534l-2.623-5.359h-1.887v5.359h-2.621v-13.435h5.264c2.737,0,4.358,1.868,4.358,4.112,0,1.889-1.151,3.056-2.453,3.531l3.003,5.792h-3.04Zm-2.036-11.094h-2.474v3.545h2.474c1.147,0,1.903-.735,1.903-1.774s-.756-1.772-1.903-1.772Z"/>
    <path class="cls-3" d="m116.238,113.602v-13.437h8.851v2.34h-6.227v3.151h5.303v2.338h-5.303v3.266h6.227v2.34h-8.851Z"/>
    <path class="cls-3" d="m133.125,113.714c-1.468,0-2.678-.528-3.622-1.471-1.359-1.36-1.317-3.038-1.317-5.36s-.041-4,1.317-5.358c.944-.945,2.154-1.471,3.622-1.471,2.512,0,4.475,1.433,4.947,4.245h-2.661c-.27-1.076-.946-1.907-2.267-1.907-.718,0-1.3.265-1.68.698-.509.569-.662,1.209-.662,3.793s.153,3.228.662,3.792c.38.435.961.699,1.68.699,1.321,0,1.997-.831,2.267-1.906h2.661c-.472,2.814-2.451,4.246-4.947,4.246Z"/>
    <path class="cls-3" d="m149.842,112.243c-.938.944-2.089,1.471-3.62,1.471s-2.696-.528-3.643-1.471c-1.357-1.36-1.316-3.038-1.316-5.36s-.041-4,1.316-5.358c.948-.945,2.118-1.471,3.643-1.471s2.682.527,3.62,1.471c1.365,1.359,1.341,3.037,1.341,5.358s.024,4.001-1.341,5.36Zm-1.94-9.134c-.378-.434-.961-.718-1.68-.718-.715,0-1.319.284-1.697.718-.509.565-.64,1.189-.64,3.773s.131,3.208.64,3.774c.378.435.983.717,1.697.717.718,0,1.302-.282,1.68-.717.511-.567.66-1.189.66-3.774s-.149-3.209-.66-3.773Z"/>
    <path class="cls-3" d="m162.962,113.602l-5.321-8.245v8.245h-2.623v-13.437h2.339l5.321,8.227v-8.227h2.623v13.437h-2.339Z"/>
    <path class="cls-3" d="m177.719,112.243c-.942.944-2.097,1.471-3.626,1.471s-2.694-.528-3.637-1.471c-1.359-1.36-1.321-3.038-1.321-5.36s-.037-4,1.321-5.358c.944-.945,2.112-1.471,3.637-1.471s2.684.527,3.626,1.471c1.361,1.359,1.339,3.037,1.339,5.358s.022,4.001-1.339,5.36Zm-1.942-9.134c-.376-.434-.963-.718-1.684-.718-.711,0-1.318.284-1.693.718-.513.565-.642,1.189-.642,3.773s.129,3.208.642,3.774c.376.435.983.717,1.693.717.72,0,1.308-.282,1.684-.717.507-.567.66-1.189.66-3.774s-.153-3.209-.66-3.773Z"/>
    <path class="cls-3" d="m192.439,113.602v-7.83l-2.567,5.094h-1.772l-2.586-5.094v7.83h-2.621v-13.437h2.584l3.51,7.267,3.491-7.267h2.584v13.437h-2.623Z"/>
    <path class="cls-3" d="m199.162,113.602v-13.437h2.621v13.437h-2.621Z"/>
    <path class="cls-3" d="m210.614,113.714c-1.47,0-2.678-.528-3.622-1.471-1.361-1.36-1.321-3.038-1.321-5.36s-.039-4,1.321-5.358c.944-.945,2.152-1.471,3.622-1.471,2.51,0,4.469,1.433,4.947,4.245h-2.664c-.264-1.076-.942-1.907-2.267-1.907-.715,0-1.298.265-1.678.698-.505.569-.66,1.209-.66,3.793s.155,3.228.66,3.792c.38.435.963.699,1.678.699,1.325,0,2.003-.831,2.267-1.906h2.664c-.478,2.814-2.457,4.246-4.947,4.246Z"/>
    <path class="cls-3" d="m231.276,113.602l-2.623-5.358h-1.883v5.358h-2.623v-13.437h5.262c2.737,0,4.358,1.87,4.358,4.115,0,1.885-1.147,3.055-2.451,3.53l3.001,5.792h-3.04Zm-2.036-11.096h-2.471v3.546h2.471c1.153,0,1.905-.737,1.905-1.772s-.752-1.775-1.905-1.775Z"/>
    <path class="cls-3" d="m237.487,113.602v-13.437h8.851v2.34h-6.227v3.151h5.303v2.338h-5.303v3.266h6.227v2.34h-8.851Z"/>
    <path class="cls-3" d="m253.66,113.714c-2.036,0-3.585-.436-4.906-1.775l1.701-1.697c.846.85,1.997,1.132,3.242,1.132,1.545,0,2.379-.583,2.379-1.66,0-.472-.133-.868-.413-1.131-.266-.246-.57-.379-1.19-.472l-1.623-.227c-1.151-.171-2.001-.529-2.604-1.112-.642-.643-.963-1.51-.963-2.644,0-2.397,1.774-4.075,4.677-4.075,1.852,0,3.191.452,4.342,1.564l-1.662,1.643c-.848-.812-1.868-.924-2.753-.924-1.396,0-2.077.772-2.077,1.696,0,.34.114.699.395.966.264.243.697.452,1.247.526l1.586.225c1.227.171,1.997.512,2.567,1.039.716.679,1.038,1.659,1.038,2.849,0,2.605-2.175,4.076-4.982,4.076Z"/>
    <path class="cls-3" d="m262.137,113.602v-13.437h8.849v2.34h-6.229v3.151h5.303v2.338h-5.303v3.266h6.229v2.34h-8.849Z"/>
    <path class="cls-3" d="m282.628,113.602l-.791-2.378h-4.779l-.81,2.378h-2.735l4.886-13.437h2.055l4.91,13.437h-2.737Zm-3.136-9.473l-1.695,4.89h3.338l-1.643-4.89Z"/>
    <path class="cls-3" d="m295.194,113.602l-2.621-5.358h-1.889v5.358h-2.621v-13.437h5.266c2.737,0,4.36,1.87,4.36,4.115,0,1.885-1.153,3.055-2.457,3.53l3.005,5.792h-3.042Zm-2.036-11.096h-2.475v3.546h2.475c1.149,0,1.905-.737,1.905-1.772s-.756-1.775-1.905-1.775Z"/>
    <path class="cls-3" d="m306.028,113.714c-1.472,0-2.682-.528-3.624-1.471-1.357-1.36-1.321-3.038-1.321-5.36s-.035-4,1.321-5.358c.942-.945,2.152-1.471,3.624-1.471,2.508,0,4.469,1.433,4.941,4.245h-2.663c-.26-1.076-.942-1.907-2.261-1.907-.717,0-1.304.265-1.68.698-.509.569-.658,1.209-.658,3.793s.149,3.228.658,3.792c.376.435.963.699,1.68.699,1.32,0,2.001-.831,2.261-1.906h2.663c-.472,2.814-2.451,4.246-4.941,4.246Z"/>
    <path class="cls-3" d="m321.537,113.602v-5.625h-4.546v5.625h-2.621v-13.437h2.621v5.491h4.546v-5.491h2.625v13.437h-2.625Z"/>
  </g>
</svg>