<?xml version="1.0" encoding="UTF-8"?>
<svg id="Layer_1" data-name="Layer 1" xmlns="http://www.w3.org/2000/svg" viewBox="0 0 353.222 148.563">
  <defs>
    <style>
      .cls-1 {
        fill: #db7d59;
      }

      .cls-2 {
        fill: #477388;
      }

      .cls-3 {
        fill: #4d4d4d;
      }
    </style>
  </defs>
  <path class="cls-2" d="m87.178,50.086v-26.838H29.059v82.615c6.124,0,29.78-2.161,29.78-33.983,19.453,3.302,28.339-7.625,28.339-21.795Z"/>
  <path class="cls-1" d="m76.671,93.675v-10.507h-1.681v10.507h-10.507v1.681h10.507v10.507h1.681v-10.507h10.507v-1.681h-10.507Z"/>
  <g>
    <path class="cls-3" d="m34.463,112.467h-5.404v12.849h2.041v-11.047h3.242c.781,0,2.642.18,2.642,2.101s-1.801,2.101-2.642,2.101h-1.741l-1.321,1.801h3.182c2.702,0,4.563-1.561,4.563-3.903s-1.801-3.903-4.563-3.903Z"/>
    <path class="cls-3" d="m47.252,125.316h2.041v-13.629l-2.041,1.561v12.068Z"/>
    <path class="cls-3" d="m67.365,114.268l1.141-1.801h-9.306v12.849h8.886v-1.801h-6.845v-3.783h5.464v-1.801h-5.464v-3.662h6.124Z"/>
    <path class="cls-3" d="m82.255,120.272c2.402-.24,3.963-1.741,3.963-3.903,0-2.342-1.861-3.903-4.563-3.903h-5.404v12.849h2.041v-11.047h3.242c.781,0,2.642.18,2.642,2.101s-1.861,2.101-2.642,2.101h-.781l-1.441,1.501,5.163,5.344h2.702l-4.923-5.043Z"/>
  </g>
  <g>
    <path class="cls-3" d="m124.529,67.46v-5.945h-3.581c-1.708,0-2.761.866-2.761,2.27,0,1.451.842,2.225,2.644,2.225.445,0,.889-.023,1.241-.095v1.522c-.376.07-.818.092-1.241.092-2.736,0-4.282-1.262-4.282-3.722,0-2.198,1.379-3.861,4.399-3.861h3.581v-1.309c0-1.476-1.006-2.669-3.113-2.669-1.475,0-2.527.282-3.3,1.242l-1.123-1.031c1.077-1.286,2.574-1.709,4.445-1.709.539,0,.938.072,1.429.19h4.143v1.544h-1.638c.561.584.864,1.474.864,2.434v8.823h-1.707Z"/>
    <path class="cls-3" d="m139.551,67.46v-7.42c0-3.159-.983-4.047-3.464-4.047-1.381,0-2.34.257-3.23.679v8.306c0,.562.42.96.959.96h1.171v1.591h-1.498c-1.381,0-2.388-1.1-2.388-2.551v-9.336c1.545-.749,3.019-1.194,4.985-1.194,3.464,0,5.219,1.286,5.219,5.593v7.42h-1.755Z"/>
    <path class="cls-3" d="m151.457,67.46v-8.988c0-1.708-.7-2.573-2.735-2.573-1.617,0-2.388.305-3.111,1.216l-1.148-.982c1.03-1.335,2.41-1.71,4.282-1.71,3.089,0,4.399,1.404,4.399,3.909v9.128h-1.687Z"/>
    <path class="cls-3" d="m166.154,54.66h1.756v7.44c0,4.306-1.989,5.522-5.104,5.522s-5.102-1.217-5.102-5.522v-7.44h1.757v7.137c0,3.3.7,4.282,3.345,4.282s3.348-.982,3.348-4.282v-7.137Z"/>
    <path class="cls-3" d="m167.11,52.39c-.936,0-1.966-.633-1.966-1.734v-.843h1.709v.561c0,.307.209.446.491.446h6.81v1.569h-7.044Z"/>
    <path class="cls-3" d="m182.438,67.46v-1.498c-.819.936-2.105,1.638-3.627,1.638-2.763,0-4.587-1.591-4.587-4.306v-8.635h1.708v8.377c0,2.129,1.24,3.066,3.231,3.066,1.661,0,3.253-1.286,3.253-3.323v-8.119h1.732v12.801h-1.709Z"/>
    <path class="cls-3" d="m190.837,66.055c.42.069.984.116,1.381.116,1.825,0,2.856-.888,2.856-2.993v-4.518c0-1.567-1.007-2.691-3.114-2.691-1.476,0-2.527.258-3.299,1.218l-1.124-1.029c1.078-1.287,2.573-1.709,4.446-1.709,3.254,0,4.821,1.566,4.821,4.119v4.751c0,2.668-1.567,4.328-4.424,4.328-.469,0-1.029-.046-1.544-.139v-1.452Z"/>
    <path class="cls-3" d="m189.266,52.39v-1.569h9.082v1.569h-9.082Z"/>
    <path class="cls-3" d="m204.36,62.358c-.047-.186-.164-.28-.328-.28h-.913v-1.569h1.57c.56,0,1.075.493,1.191,1.03l1.054,4.704c1.851,0,2.972-1.239,2.972-3.347v-4.329c0-1.567-1.005-2.621-3.183-2.621-1.475,0-2.527.28-3.299,1.24l-1.125-1.029c1.077-1.287,2.575-1.709,4.447-1.709,3.255,0,4.82,1.566,4.82,4.119v4.47c0,2.669-1.565,4.609-4.421,4.609-.47,0-1.031-.046-1.544-.139l-1.242-5.149Z"/>
    <path class="cls-3" d="m210.77,52.39c-.935,0-1.965-.633-1.965-1.734v-.843h1.708v.561c0,.307.21.446.49.446h6.811v1.569h-7.045Z"/>
    <path class="cls-3" d="m226.403,54.66h1.754v7.792c0,4.306-2.06,5.171-5.006,5.171-3.23,0-5.268-1.286-5.268-4.47,0-1.8.561-2.855,1.966-3.3-1.426-.467-1.966-1.264-1.966-2.691,0-1.474.913-2.502,2.294-2.502h1.731v1.497h-1.404c-.583,0-.865.492-.865,1.029,0,1.193.726,1.917,2.246,1.917.023.025,1.217.025,1.217.025v1.544h-.725c-1.802,0-2.715.585-2.715,2.294,0,2.224,1.055,3.112,3.488,3.112,2.55,0,3.252-.632,3.252-3.932v-7.487Z"/>
    <path class="cls-3" d="m235.434,67.46c-1.594,0-2.717-.936-2.717-2.669v-10.132h1.685v10.132c0,.749.352,1.146,1.289,1.146h.7v1.523h-.958Z"/>
    <path class="cls-3" d="m248.981,67.46v-7.491c0-3.157-.841-3.955-3.486-3.955s-3.487.798-3.487,3.955v1.617c.399-.728,1.217-1.123,2.199-1.123h1.639v1.66h-1.381c-1.429,0-2.457.983-2.457,2.527v2.81h-1.756v-7.725c0-4.164,2.13-5.266,5.243-5.266.701,0,1.356.072,1.941.19h3.978v1.544h-1.684c.632.701,1.007,1.943,1.007,3.532v7.725h-1.756Z"/>
    <path class="cls-3" d="m258.642,61.656c-2.246-.303-3.509-1.615-3.509-3.581,0-2.176,1.709-3.605,4.305-3.605,1.639,0,2.995.328,4.026,1.172l-.984,1.17c-.818-.633-1.871-.89-3.062-.89-1.689,0-2.601.842-2.601,2.106,0,1.17.586,1.873,2.037,2.082l1.777.258c2.177.304,3.395,1.31,3.395,3.464,0,2.339-1.826,3.768-4.704,3.768-2.131,0-3.184-.397-4.399-1.476l1.006-1.216c.795.773,1.942,1.241,3.368,1.241,1.897,0,3.044-.843,3.044-2.296,0-1.098-.445-1.731-1.873-1.94l-1.825-.258Z"/>
    <path class="cls-3" d="m278.205,60.768v1.332c0,4.306-1.99,5.522-5.103,5.522s-5.1-1.217-5.1-5.522v-7.44h1.754v7.137c0,3.3.701,4.282,3.346,4.282s3.348-.982,3.348-4.282v-1.028h-2.948v-1.686h2.948v-4.423h1.755v4.423h1.1v1.686h-1.1Z"/>
    <path class="cls-3" d="m284.17,62.358c-.046-.186-.163-.28-.328-.28h-.913v-1.569h1.617c.56,0,1.076.493,1.191,1.03l1.053,4.633c1.85,0,2.879-1.168,2.879-3.275v-4.259c0-1.476-1.029-2.623-3.135-2.623-1.475,0-2.527.282-3.301,1.243l-1.123-1.031c1.077-1.286,2.575-1.709,4.447-1.709.561,0,1.076.047,1.545.143h4.048v1.544h-1.64c.539.561.866,1.474.866,2.434v4.399c0,2.669-1.567,4.609-4.421,4.609-.469,0-1.031-.046-1.547-.139l-1.239-5.149Zm-.304,9.783v-1.569h3.909c1.451,0,1.893-.42,1.893-1.66,0-.023,1.708-.023,1.733-.023,0,2.152-1.288,3.253-3.44,3.253h-4.096Z"/>
    <path class="cls-3" d="m304.573,67.46v-7.42c0-3.159-.982-4.047-3.463-4.047-1.382,0-2.34.257-3.229.679v10.788h-1.756v-11.818c1.545-.749,3.019-1.194,4.985-1.194,3.463,0,5.218,1.286,5.218,5.593v7.42h-1.755Z"/>
    <path class="cls-3" d="m298.907,52.39v-1.569h9.081v1.569h-9.081Z"/>
    <path class="cls-3" d="m314.003,62.358c-.047-.186-.163-.28-.328-.28h-.913v-1.569h1.567c.562,0,1.077.493,1.194,1.03l1.053,4.704c1.85,0,2.973-1.239,2.973-3.347v-4.329c0-1.567-1.007-2.621-3.183-2.621-1.475,0-2.526.28-3.3,1.24l-1.124-1.029c1.077-1.287,2.575-1.709,4.447-1.709,3.252,0,4.821,1.566,4.821,4.119v4.47c0,2.669-1.569,4.609-4.425,4.609-.467,0-1.026-.046-1.544-.139l-1.239-5.149Z"/>
    <path class="cls-3" d="m125.582,81.631h1.755v11.279c0,4.305-1.988,5.522-5.101,5.522s-5.102-1.218-5.102-5.522v-7.442h1.755v7.138c0,3.3.702,4.283,3.348,4.283s3.346-.983,3.346-4.283v-10.975Z"/>
    <path class="cls-3" d="m123.581,81.957v1.242h-1.732v-1.242h-1.616v-1.285h1.616v-1.242h1.732v1.242h1.615v1.285h-1.615Z"/>
    <path class="cls-3" d="m135.781,96.864c.423.072.984.119,1.382.119,1.824,0,2.856-.89,2.856-2.995v-4.518c0-1.568-1.007-2.692-3.112-2.692-1.476,0-2.529.259-3.301,1.219l-1.121-1.031c1.075-1.287,2.572-1.709,4.445-1.709,3.252,0,4.819,1.57,4.819,4.12v4.75c0,2.669-1.567,4.331-4.422,4.331-.467,0-1.028-.049-1.546-.142v-1.452Z"/>
    <path class="cls-3" d="m154.712,85.468h1.757v7.794c0,4.306-2.059,5.171-5.012,5.171-3.229,0-5.262-1.287-5.262-4.47,0-1.801.561-2.856,1.965-3.299-1.429-.47-1.965-1.265-1.965-2.691,0-1.476.912-2.505,2.292-2.505h1.731v1.497h-1.404c-.586,0-.866.492-.866,1.031,0,1.193.727,1.918,2.248,1.918.022.023,1.217.023,1.217.023v1.546h-.727c-1.802,0-2.716.583-2.716,2.293,0,2.221,1.056,3.112,3.486,3.112,2.554,0,3.255-.633,3.255-3.933v-7.488Z"/>
    <path class="cls-3" d="m176.612,89.844c0-1.731-.983-3.017-3.44-3.017-1.733,0-2.854.35-3.627,1.17l-1.124-1.031c1.124-1.287,2.621-1.709,4.774-1.709,3.486,0,5.147,1.85,5.147,4.493v3.676c0,3.439-1.685,5.008-5.101,5.008-3.394,0-5.101-1.427-5.101-4.516v-1.335c0-1.029.818-1.871,1.919-1.871h2.129v1.566h-1.756c-.443,0-.538.212-.538.515v1.334c0,1.943.843,2.786,3.347,2.786,2.644,0,3.37-.89,3.37-3.792v-3.276Z"/>
    <path class="cls-3" d="m170.359,83.199v-1.567h6.998c.047-.703.585-1.265,1.311-1.265.866,0,1.38.632,1.38,1.357,0,.819-.608,1.475-1.473,1.475h-8.217Z"/>
    <path class="cls-3" d="m179.703,78.46v-.748c0-.467-.352-.703-.607-.703l-1.029.659-.914-.659c-.327,0-.749.213-.749.703v.748h-1.59v-.957c0-1.332.888-1.756,2.152-1.756l1.101.844,1.076-.844c1.216,0,1.94.633,1.94,1.637h.189c.304,0,.562-.208.562-.607v-1.451h1.566v1.405c0,1.054-.748,1.73-1.848,1.73h-1.85Z"/>
    <path class="cls-3" d="m182.925,89.938h1.848l2.012,7.045c1.849,0,2.88-1.171,2.88-3.277v-5.825c0-.539-.352-.915-.939-.915h-1.402v-1.497h1.593c1.521,0,2.457,1.124,2.457,2.599v5.71c0,2.69-1.545,4.681-4.424,4.681-.469,0-1.03-.049-1.545-.142l-2.48-8.378Z"/>
    <path class="cls-3" d="m204.592,98.269v-7.418c0-3.158-.866-4.048-3.347-4.048-1.237,0-2.107.14-2.972.56v8.426c0,1.45-1.008,2.552-2.388,2.552h-.89v-1.568h.562c.538,0,.959-.397.959-.96v-9.477c1.475-.703,2.973-1.079,4.727-1.079,3.464,0,5.102,1.291,5.102,5.595v7.418h-1.755Z"/>
    <path class="cls-3" d="m216.501,98.269v-8.986c0-1.708-.702-2.574-2.738-2.574-1.613,0-2.388.303-3.113,1.217l-1.145-.982c1.029-1.336,2.411-1.71,4.282-1.71,3.089,0,4.398,1.405,4.398,3.911v9.125h-1.684Z"/>
    <path class="cls-3" d="m231.196,98.269v-7.418c0-3.158-.985-4.048-3.465-4.048-1.381,0-2.34.257-3.229.678v10.788h-1.755v-11.817c1.545-.749,3.018-1.195,4.984-1.195,3.465,0,5.22,1.291,5.22,5.595v7.418h-1.755Z"/>
    <path class="cls-3" d="m240.646,92.466c-2.245-.304-3.511-1.615-3.511-3.581,0-2.177,1.708-3.604,4.307-3.604,1.64,0,2.995.325,4.025,1.17l-.983,1.171c-.817-.633-1.873-.89-3.065-.89-1.685,0-2.599.842-2.599,2.106,0,1.17.586,1.872,2.037,2.082l1.777.258c2.178.305,3.394,1.311,3.394,3.463,0,2.341-1.825,3.767-4.705,3.767-2.129,0-3.184-.396-4.397-1.473l1.004-1.218c.797.772,1.944,1.241,3.371,1.241,1.896,0,3.043-.843,3.043-2.295,0-1.1-.445-1.729-1.873-1.94l-1.825-.258Z"/>
    <path class="cls-3" d="m265.684,98.269v-1.497c-.819.935-2.083,1.637-3.604,1.637-2.761,0-4.142-1.589-4.142-4.305v-3.206c0-3.159-.586-4.048-3.066-4.048-1.38,0-2.223.257-3.114.678v8.261c0,.562.423.96.961.96h1.17v1.521h-1.497c-1.381,0-2.387-1.099-2.387-2.551v-9.221c1.544-.749,2.902-1.192,4.867-1.192,3.465,0,4.774,1.287,4.774,5.593v2.948c0,2.129.797,3.066,2.785,3.066,1.662,0,3.229-1.288,3.229-3.324v-8.12h1.732v12.801h-1.708Z"/>
    <path class="cls-3" d="m267.318,81.913v1.17h-1.732v-2.785h5.99l-.185,1.615h-4.073Z"/>
  </g>
</svg>