<svg version="1.1" viewBox="-48.4 -38.72 193.6 247.44" xmlns="http://www.w3.org/2000/svg">
  <rect fill="white" fill-opacity="0" x="-48.4" y="-38.72" width="193.6" height="247.44"/>
  <g>
    <path fill="white" d="M 96.8 44.7 V 0 H 0 V 137.6 C 10.2 137.6 49.6 134 49.6 81 C 82 86.5 96.8 68.3 96.8 44.7 Z"/>
    <path fill="#db7d59" d="M 79.3 117.3 v -17.5 h -2.8 v 17.5 h -17.5 v 2.8 h 17.5 v 17.5 h 2.8 v -17.5 h 17.5 v -2.8 z"/>
    <g fill="white">
      <path d="M 9 148.6 h -9 v 21.4 h 3.4 v -18.4 h 5.4 c 1.3 0 4.4 0.3 4.4 3.5 c 0 3.2 -3 3.5 -4.4 3.5 h -2.9 l -2.2 3 h 5.3 c 4.5 0 7.6 -2.6 7.6 -6.5 c 0 -3.9 -3 -6.5 -7.6 -6.5 z"/>
      <path d="M 30.3 170 l 3.4 0 l 0 -22.7 l -3.4 2.6 z"/>
      <path d="M 63.8 151.6 l 1.9 -3 h -15.5 v 21.4 h 14.8 v -3 h -11.4 v -6.3 h 9.1 v -3 h -9.1 v -6.1 z"/>
      <path d="M 88.6 161.6 c 4 -0.4 6.6 -2.9 6.6 -6.5 c 0 -3.9 -3.1 -6.5 -7.6 -6.5 h -9 v 21.4 h 3.4 v -18.4 h 5.4 c 1.3 0 4.4 0.3 4.4 3.5 c 0 3.2 -3.1 3.5 -4.4 3.5 h -1.3 l -2.4 2.5 l 8.6 8.9 h 4.5 z"/>
    </g>
  </g>
</svg>