<?xml version="1.0" encoding="UTF-8"?>
<svg id="Layer_1" data-name="Layer 1" xmlns="http://www.w3.org/2000/svg" viewBox="0 0 244.48 283.784">
  <defs>
    <style>
      .cls-1 {
        fill: #fff;
      }

      .cls-2 {
        fill: #db7d59;
      }
    </style>
  </defs>
  <path class="cls-1" d="m158.465,91.421v-33.456h-72.45v102.987c7.634,0,37.123-2.694,37.123-42.362,24.25,4.116,35.327-9.505,35.327-27.169Z"/>
  <path class="cls-2" d="m145.367,145.758v-13.098h-2.096v13.098h-13.098v2.096h13.098v13.098h2.096v-13.098h13.098v-2.096h-13.098Z"/>
  <g>
    <path class="cls-1" d="m92.751,169.185h-6.736v16.017h2.545v-13.771h4.042c.973,0,3.293.225,3.293,2.62s-2.245,2.62-3.293,2.62h-2.171l-1.647,2.245h3.967c3.368,0,5.688-1.946,5.688-4.865s-2.245-4.865-5.688-4.865Z"/>
    <path class="cls-1" d="m108.693,185.202h2.545v-16.99l-2.545,1.946v15.044Z"/>
    <path class="cls-1" d="m133.766,171.43l1.422-2.245h-11.601v16.017h11.077v-2.245h-8.532v-4.715h6.811v-2.245h-6.811v-4.566h7.634Z"/>
    <path class="cls-1" d="m152.328,178.915c2.994-.299,4.94-2.171,4.94-4.865,0-2.919-2.32-4.865-5.688-4.865h-6.736v16.017h2.545v-13.771h4.042c.973,0,3.293.225,3.293,2.62s-2.32,2.62-3.293,2.62h-.973l-1.796,1.871,6.437,6.661h3.368l-6.137-6.287Z"/>
  </g>
  <g>
    <path class="cls-1" d="m55.399,232.649v-4.21h-2.538c-1.209,0-1.955.613-1.955,1.607,0,1.028.596,1.575,1.873,1.575.316,0,.63-.016.879-.066v1.076c-.265.052-.579.068-.879.068-1.939,0-3.033-.895-3.033-2.637,0-1.557.978-2.737,3.116-2.737h2.538v-.926c0-1.046-.714-1.889-2.205-1.889-1.046,0-1.792.197-2.339.877l-.796-.73c.764-.911,1.824-1.209,3.148-1.209.384,0,.667.05,1.015.133h2.933v1.094h-1.161c.398.413.613,1.042.613,1.724v6.25h-1.209"/>
    <path class="cls-1" d="m66.041,232.649v-5.256c0-2.237-.698-2.867-2.455-2.867-.978,0-1.657.181-2.287.481v5.884c0,.4.298.68.678.68h.83v1.128h-1.062c-.978,0-1.691-.782-1.691-1.808v-6.614c1.096-.531,2.14-.845,3.532-.845,2.455,0,3.697.911,3.697,3.961v5.256h-1.241"/>
    <path class="cls-1" d="m74.476,232.649v-6.366c0-1.211-.497-1.823-1.939-1.823-1.144,0-1.691.215-2.203.861l-.814-.696c.73-.945,1.708-1.211,3.033-1.211,2.188,0,3.116.994,3.116,2.769v6.465h-1.193"/>
    <path class="cls-1" d="m84.887,223.582h1.243v5.272c0,3.05-1.408,3.912-3.614,3.912s-3.614-.863-3.614-3.912v-5.272h1.245v5.057c0,2.336.497,3.032,2.37,3.032s2.371-.696,2.371-3.032v-5.057"/>
    <path class="cls-1" d="m85.565,221.973c-.664,0-1.394-.447-1.394-1.227v-.597h1.209v.398c0,.215.151.316.35.316h4.825v1.11h-4.99"/>
    <path class="cls-1" d="m96.423,232.649v-1.06c-.579.664-1.491,1.161-2.569,1.161-1.957,0-3.25-1.128-3.25-3.051v-6.117h1.211v5.936c0,1.507.879,2.171,2.289,2.171,1.175,0,2.305-.911,2.305-2.354v-5.753h1.227v9.068h-1.212"/>
    <path class="cls-1" d="m102.373,231.656c.298.05.698.083.979.083,1.293,0,2.023-.63,2.023-2.12v-3.203c0-1.109-.714-1.904-2.208-1.904-1.044,0-1.789.18-2.336.861l-.795-.73c.762-.911,1.821-1.209,3.15-1.209,2.303,0,3.415,1.109,3.415,2.917v3.367c0,1.889-1.112,3.066-3.135,3.066-.332,0-.73-.032-1.094-.099v-1.028"/>
    <rect class="cls-1" x="101.261" y="220.862" width="6.434" height="1.109"/>
    <path class="cls-1" d="m111.955,229.037l-.233-.199h-.647v-1.112h1.11c.398,0,.764.35.847.73l.746,3.331c1.311,0,2.106-.877,2.106-2.37v-3.067c0-1.112-.712-1.857-2.255-1.857-1.046,0-1.792.197-2.337.879l-.798-.73c.764-.911,1.826-1.209,3.153-1.209,2.303,0,3.414,1.109,3.414,2.917v3.166c0,1.892-1.11,3.266-3.132,3.266-.332,0-.73-.032-1.094-.099l-.879-3.647"/>
    <path class="cls-1" d="m116.496,221.973c-.662,0-1.394-.447-1.394-1.227v-.597h1.211v.398c0,.215.149.316.348.316h4.825v1.11h-4.99"/>
    <path class="cls-1" d="m127.57,223.582h1.243v5.521c0,3.048-1.458,3.663-3.548,3.663-2.285,0-3.731-.911-3.731-3.166,0-1.279.398-2.023,1.394-2.339-1.012-.33-1.394-.895-1.394-1.907,0-1.042.647-1.772,1.625-1.772h1.229v1.06h-.995c-.413,0-.612.35-.612.73,0,.845.512,1.358,1.59,1.358l.863.016v1.096h-.515c-1.275,0-1.923.414-1.923,1.625,0,1.575.746,2.203,2.47,2.203,1.808,0,2.305-.445,2.305-2.784v-5.304"/>
    <path class="cls-1" d="m133.969,232.649c-1.13,0-1.925-.664-1.925-1.891v-7.177h1.193v7.177c0,.533.251.813.915.813h.497v1.078h-.68"/>
    <path class="cls-1" d="m143.566,232.649v-5.306c0-2.237-.596-2.802-2.47-2.802s-2.472.565-2.472,2.802v1.144c.285-.513.864-.795,1.56-.795h1.159v1.178h-.976c-1.012,0-1.743.694-1.743,1.789v1.989h-1.243v-5.471c0-2.951,1.51-3.729,3.715-3.729.497,0,.961.05,1.376.133h2.82v1.094h-1.195c.448.499.714,1.376.714,2.502v5.471h-1.245"/>
    <path class="cls-1" d="m150.411,228.538c-1.593-.215-2.486-1.144-2.486-2.536,0-1.541,1.212-2.553,3.05-2.553,1.161,0,2.122.231,2.852.829l-.696.829c-.579-.448-1.326-.63-2.171-.63-1.196,0-1.842.596-1.842,1.492,0,.829.414,1.324,1.442,1.473l1.259.185c1.543.215,2.407.929,2.407,2.454,0,1.657-1.293,2.669-3.334,2.669-1.509,0-2.255-.283-3.116-1.044l.712-.863c.565.547,1.376.879,2.386.879,1.347,0,2.156-.596,2.156-1.627,0-.777-.314-1.224-1.326-1.374l-1.293-.183"/>
    <path class="cls-1" d="m164.269,227.908v.945c0,3.05-1.41,3.912-3.614,3.912s-3.614-.863-3.614-3.912v-5.272h1.243v5.057c0,2.336.497,3.032,2.371,3.032s2.371-.696,2.371-3.032v-.73h-2.088v-1.193h2.088v-3.134h1.243v3.134h.779v1.193h-.779"/>
    <path class="cls-1" d="m168.28,235.968v-1.114h2.768c1.029,0,1.343-.298,1.343-1.175l1.227-.016c0,1.525-.911,2.305-2.436,2.305h-2.902m.215-6.931l-.233-.199h-.646v-1.112h1.144c.398,0,.762.35.845.73l.745,3.283c1.311,0,2.041-.829,2.041-2.321v-3.017c0-1.046-.73-1.858-2.221-1.858-1.044,0-1.79.201-2.339.881l-.796-.732c.764-.91,1.826-1.211,3.152-1.211.397,0,.762.034,1.094.102h2.868v1.094h-1.161c.38.397.613,1.042.613,1.724v3.117c0,1.891-1.112,3.265-3.134,3.265-.332,0-.73-.032-1.096-.099l-.877-3.647Z"/>
    <path class="cls-1" d="m182.95,232.649v-5.256c0-2.237-.694-2.867-2.454-2.867-.978,0-1.659.181-2.287.481v7.642h-1.243v-8.372c1.094-.531,2.138-.845,3.53-.845,2.454,0,3.697.911,3.697,3.961v5.256h-1.243"/>
    <rect class="cls-1" x="178.936" y="220.862" width="6.434" height="1.109"/>
    <path class="cls-1" d="m189.63,229.037l-.231-.199h-.647v-1.112h1.11c.398,0,.762.35.845.73l.746,3.331c1.311,0,2.107-.877,2.107-2.37v-3.067c0-1.112-.714-1.857-2.255-1.857-1.046,0-1.792.197-2.339.879l-.796-.73c.764-.911,1.824-1.209,3.152-1.209,2.303,0,3.414,1.109,3.414,2.917v3.166c0,1.892-1.11,3.266-3.134,3.266-.329,0-.728-.032-1.093-.099l-.879-3.647"/>
    <path class="cls-1" d="m72.742,242.69h1.241v7.991c0,3.05-1.408,3.912-3.613,3.912s-3.616-.863-3.616-3.912v-5.273h1.245v5.057c0,2.339.497,3.035,2.371,3.035s2.371-.696,2.371-3.035v-7.774"/>
    <polyline class="cls-1" points="71.324 242.921 71.324 243.802 70.097 243.802 70.097 242.921 68.953 242.921 68.953 242.008 70.097 242.008 70.097 241.131 71.324 241.131 71.324 242.008 72.469 242.008 72.469 242.921 71.324 242.921"/>
    <path class="cls-1" d="m79.968,253.481c.298.05.698.084.979.084,1.292,0,2.022-.631,2.022-2.122v-3.2c0-1.11-.712-1.907-2.205-1.907-1.044,0-1.792.183-2.339.863l-.795-.73c.764-.913,1.823-1.211,3.151-1.211,2.302,0,3.414,1.112,3.414,2.92v3.364c0,1.891-1.112,3.069-3.134,3.069-.33,0-.73-.034-1.094-.1v-1.029"/>
    <path class="cls-1" d="m93.378,245.407h1.245v5.521c0,3.051-1.458,3.665-3.55,3.665-2.289,0-3.728-.911-3.728-3.168,0-1.275.397-2.023,1.39-2.336-1.012-.333-1.39-.897-1.39-1.907,0-1.046.644-1.776,1.623-1.776h1.227v1.062h-.995c-.416,0-.613.348-.613.73,0,.845.513,1.358,1.594,1.358l.86.018v1.094h-.513c-1.277,0-1.926.413-1.926,1.623,0,1.575.749,2.206,2.472,2.206,1.808,0,2.305-.448,2.305-2.787v-5.304"/>
    <path class="cls-1" d="m108.893,248.509c0-1.227-.696-2.138-2.438-2.138-1.225,0-2.022.248-2.569.829l-.795-.73c.795-.913,1.857-1.211,3.381-1.211,2.468,0,3.648,1.309,3.648,3.184v2.603c0,2.436-1.195,3.548-3.614,3.548-2.407,0-3.614-1.01-3.614-3.2v-.945c0-.73.579-1.326,1.358-1.326h1.51v1.11h-1.243c-.316,0-.382.149-.382.363v.947c0,1.377.597,1.975,2.371,1.975,1.871,0,2.386-.631,2.386-2.689v-2.319"/>
    <path class="cls-1" d="m104.464,243.802v-1.112h4.956c.034-.499.416-.895.931-.895.612,0,.978.447.978.961,0,.579-.431,1.046-1.042,1.046h-5.822"/>
    <path class="cls-1" d="m111.083,240.443v-.529c0-.33-.248-.499-.431-.499l-.73.466-.647-.466c-.231,0-.529.152-.529.499v.529h-1.127v-.677c0-.945.63-1.246,1.525-1.246l.779.599.764-.599c.861,0,1.376.45,1.376,1.161h.133c.215,0,.398-.147.398-.429v-1.029h1.11v.995c0,.748-.531,1.225-1.309,1.225h-1.311"/>
    <path class="cls-1" d="m113.365,248.575h1.311l1.424,4.99c1.309,0,2.039-.829,2.039-2.321v-4.126c0-.382-.249-.649-.664-.649h-.995v-1.062h1.128c1.08,0,1.743.796,1.743,1.842v4.043c0,1.908-1.096,3.318-3.135,3.318-.332,0-.73-.034-1.094-.1l-1.758-5.936"/>
    <path class="cls-1" d="m128.716,254.477v-5.256c0-2.237-.613-2.868-2.373-2.868-.876,0-1.491.099-2.103.4v5.968c0,1.028-.715,1.806-1.691,1.806h-.631v-1.11h.398c.382,0,.678-.283.678-.68v-6.714c1.046-.499,2.107-.764,3.349-.764,2.455,0,3.616.915,3.616,3.962v5.256h-1.243"/>
    <path class="cls-1" d="m137.153,254.477v-6.366c0-1.209-.497-1.824-1.939-1.824-1.143,0-1.691.215-2.206.864l-.813-.699c.73-.945,1.709-1.211,3.035-1.211,2.188,0,3.116.995,3.116,2.771v6.465h-1.193"/>
    <path class="cls-1" d="m147.562,254.477v-5.256c0-2.237-.696-2.868-2.454-2.868-.976,0-1.656.183-2.287.482v7.642h-1.245v-8.373c1.097-.531,2.14-.845,3.532-.845,2.454,0,3.699.915,3.699,3.962v5.256h-1.245"/>
    <path class="cls-1" d="m154.258,250.365c-1.591-.215-2.486-1.144-2.486-2.536,0-1.543,1.211-2.553,3.05-2.553,1.162,0,2.124.23,2.854.827l-.698.832c-.579-.45-1.327-.631-2.172-.631-1.193,0-1.84.597-1.84,1.492,0,.827.416,1.326,1.442,1.475l1.261.183c1.541.215,2.405.927,2.405,2.454,0,1.657-1.293,2.669-3.334,2.669-1.507,0-2.256-.282-3.116-1.046l.712-.861c.563.545,1.377.879,2.387.879,1.343,0,2.154-.597,2.154-1.625,0-.78-.314-1.227-1.326-1.376l-1.293-.183"/>
    <path class="cls-1" d="m171.995,254.477v-1.06c-.579.662-1.475,1.161-2.553,1.161-1.955,0-2.935-1.127-2.935-3.051v-2.271c0-2.239-.414-2.868-2.172-2.868-.976,0-1.573.181-2.205.482v5.851c0,.397.299.68.68.68h.83v1.076h-1.062c-.978,0-1.69-.777-1.69-1.806v-6.533c1.093-.529,2.054-.845,3.446-.845,2.457,0,3.383.911,3.383,3.962v2.088c0,1.509.565,2.174,1.973,2.174,1.177,0,2.287-.913,2.287-2.357v-5.753h1.229v9.069h-1.212"/>
    <polyline class="cls-1" points="173.156 242.889 173.156 243.718 171.926 243.718 171.926 241.744 176.171 241.744 176.04 242.889 173.156 242.889"/>
  </g>
</svg>